<svg fill="#fff" xmlns="http://www.w3.org/2000/svg"  viewBox="0 0 48 48" width="24px" height="24px"><path d="M25.88,24L7.31,42.57C7.1,42.13,7,41.65,7,41.15V6.85c0-0.5,0.1-0.98,0.31-1.42L25.88,24z"/><path d="M28,26.12l6.21,6.21l-22.05,11.9c-0.52,0.28-1.09,0.42-1.66,0.42c-0.31,0-0.61-0.04-0.91-0.12L28,26.12z"/><path d="M28,21.88L9.6,3.48c0.85-0.24,1.76-0.14,2.56,0.29l22.05,11.9L28,21.88z"/><path d="M45.79,24c0,1.29-0.71,2.47-1.84,3.08l-6.98,3.77L30.12,24l6.85-6.85l6.98,3.77C45.08,21.53,45.79,22.71,45.79,24z"/></svg>